<?xml version="1.0" encoding="utf-8"?>
<!-- Generator: Adobe Illustrator 27.7.0, SVG Export Plug-In . SVG Version: 6.00 Build 0)  -->
<svg version="1.1" id="Layer_1" xmlns="http://www.w3.org/2000/svg" xmlns:xlink="http://www.w3.org/1999/xlink" x="0px" y="0px"
	 viewBox="0 0 512 512" style="enable-background:new 0 0 512 512;" xml:space="preserve">
<g>
	<path d="M486.4,358.4H25.6C11.46,358.4,0,369.86,0,384s11.46,25.6,25.6,25.6h460.8c14.14,0,25.6-11.46,25.6-25.6
		S500.54,358.4,486.4,358.4"/>
	<path d="M120.5,186.7L61.8,128l58.7-58.7c10-10,10-26.21,0-36.2c-10-10-26.21-10-36.2,0L7.5,109.9c-10,10-10,26.21,0,36.2
		l76.8,76.8c10,10,26.21,10,36.2,0C130.5,212.9,130.5,196.7,120.5,186.7L120.5,186.7z"/>
	<path d="M25.6,153.6h460.8c14.14,0,25.6-11.46,25.6-25.6c0-14.14-11.46-25.6-25.6-25.6H25.6C11.46,102.4,0,113.86,0,128
		C0,142.14,11.46,153.6,25.6,153.6"/>
	<path d="M427.7,478.9l76.8-76.8c4.77-4.77,7.5-11.36,7.5-18.1s-2.73-13.34-7.5-18.1l-76.8-76.8c-10-10-26.21-10-36.2,0
		c-10,10-10,26.21,0,36.2l58.7,58.7l-58.7,58.7c-10,10-10,26.21,0,36.2C401.5,488.9,417.7,488.9,427.7,478.9L427.7,478.9z"/>
</g>
</svg>
